{"glyphs":{"0":{"ha":926,"x_min":57,"x_max":869,"o":"m 57 501 q 77 290 57 385 q 134 140 97 196 q 260 23 182 62 q 463 -16 338 -16 q 778 109 686 -16 q 869 504 869 233 q 868 570 869 534 q 864 642 867 606 q 856 712 861 677 q 844 774 851 746 q 807 876 831 832 q 742 958 783 920 q 637 1024 701 999 q 472 1048 574 1048 q 161 935 262 1048 q 117 862 136 907 q 84 760 97 817 q 64 638 71 704 q 57 501 57 572 m 330 500 q 333 593 330 547 q 339 679 335 639 q 349 749 343 718 q 364 796 355 779 q 464 865 396 865 q 564 798 530 865 q 578 749 572 781 q 587 678 583 718 q 593 590 591 637 q 595 493 595 543 q 590 376 595 425 q 579 294 586 326 q 535 201 566 231 q 463 172 504 172 q 364 241 400 172 q 330 500 330 310 z "},"1":{"ha":648,"x_min":54,"x_max":572,"o":"m 554 1069 l 355 1072 q 307 1049 326 1057 q 271 1033 288 1040 q 238 1020 254 1026 q 197 1003 221 1014 q 140 975 174 991 q 57 932 107 958 l 54 728 q 95 742 78 734 q 127 755 113 749 q 156 769 142 762 q 186 785 170 777 q 214 798 203 793 q 237 808 225 803 q 263 820 249 814 q 300 838 278 827 l 293 0 l 572 0 l 554 1069 z "},"2":{"ha":926,"x_min":36,"x_max":865,"o":"m 865 0 l 859 139 l 243 139 q 269 191 240 161 q 335 248 297 220 q 409 299 372 277 q 461 328 446 321 q 492 345 469 332 q 542 376 514 358 q 599 412 570 393 q 648 444 628 431 q 681 464 657 450 q 734 497 705 478 q 791 538 764 517 q 830 581 818 559 q 849 627 843 602 q 856 681 854 653 q 857 734 857 708 q 856 785 856 761 q 843 860 856 828 q 806 926 829 892 q 679 1029 760 996 q 453 1063 599 1063 q 285 1048 349 1060 q 183 1006 221 1036 q 127 922 146 975 q 93 785 109 869 l 215 785 q 227 857 221 827 q 256 906 233 886 q 325 934 278 925 q 458 945 371 943 q 514 932 484 945 q 572 899 545 920 q 618 853 599 878 q 640 807 637 829 q 644 762 642 789 q 646 708 646 736 q 642 659 646 682 q 629 624 637 636 q 595 597 621 612 q 535 564 570 582 q 463 527 500 546 q 395 486 425 507 q 300 425 346 454 q 213 368 254 396 q 140 311 172 339 q 89 254 109 283 q 62 195 71 227 q 49 131 53 164 q 42 64 45 97 q 36 0 40 31 l 865 0 z "},"3":{"ha":926,"x_min":115,"x_max":838,"o":"m 115 890 q 199 890 146 890 q 314 890 252 890 q 444 890 378 890 q 572 891 513 890 q 675 892 631 892 q 739 893 721 892 l 741 893 q 695 860 726 884 q 624 806 664 836 q 543 745 585 777 q 465 686 501 713 q 405 643 429 660 q 378 627 380 627 l 378 524 l 532 524 q 578 500 562 524 q 601 441 595 476 q 607 364 607 406 q 607 289 607 323 q 604 225 607 256 q 592 172 602 195 q 565 134 582 149 q 521 118 549 119 q 378 113 433 114 q 292 121 322 111 q 251 155 261 131 q 245 227 241 179 l 118 225 q 131 144 127 179 q 140 85 135 110 q 157 43 146 60 q 190 17 168 26 q 251 3 212 7 q 350 0 289 0 q 435 0 385 0 q 535 3 485 0 q 628 11 585 5 q 693 26 672 16 q 763 78 736 47 q 806 145 790 109 q 828 223 822 182 q 833 309 833 265 q 831 384 833 343 q 820 461 828 424 q 797 529 811 498 q 761 576 783 559 q 720 601 743 590 q 673 617 697 611 q 627 625 650 623 q 587 624 604 627 q 720 734 656 676 q 833 833 785 793 q 837 856 836 836 q 836 901 838 875 q 833 958 835 928 q 832 1011 832 987 l 450 1013 q 366 1013 393 1013 q 325 1013 339 1013 q 303 1012 311 1013 q 277 1011 296 1011 q 222 1012 258 1011 q 115 1013 186 1013 l 115 890 z "},"4":{"ha":926,"x_min":28,"x_max":897,"o":"m 530 289 l 532 0 l 772 0 l 771 289 l 896 289 l 897 400 l 772 400 l 772 1011 l 532 1011 l 29 412 l 28 289 l 530 289 m 532 400 l 171 400 l 532 833 l 532 400 z "},"5":{"ha":926,"x_min":66,"x_max":865,"o":"m 83 987 l 83 553 q 239 551 179 551 q 342 551 298 551 q 425 552 386 551 q 518 553 464 553 q 565 534 549 553 q 588 484 581 515 q 595 410 595 452 q 595 325 595 370 q 595 194 595 241 q 587 124 596 147 q 553 97 578 102 q 479 92 529 92 q 372 94 431 92 q 265 111 314 96 q 189 160 216 126 q 174 260 161 195 l 66 260 q 68 187 68 222 q 72 123 68 154 q 87 68 77 93 q 123 25 98 43 q 274 3 193 5 q 456 0 355 0 q 591 1 525 0 q 705 0 657 1 q 802 28 768 -1 q 849 105 835 57 q 864 214 863 153 q 865 339 865 275 q 865 411 865 374 q 861 484 865 449 q 844 551 856 519 q 808 604 832 582 q 753 637 785 627 q 687 653 722 648 q 612 659 652 659 q 538 659 575 659 l 243 659 l 245 885 l 850 885 l 847 987 l 83 987 z "},"6":{"ha":926,"x_min":75,"x_max":808,"o":"m 677 987 q 650 987 659 987 q 637 987 643 987 q 627 987 633 987 q 603 987 621 987 q 553 987 586 987 q 461 987 519 987 q 299 982 366 990 q 190 951 233 974 q 124 890 147 928 q 91 797 102 852 q 77 667 79 742 q 75 496 75 591 q 76 404 75 450 q 77 317 77 358 q 77 239 77 275 q 78 176 78 203 q 117 67 78 104 q 223 15 155 31 q 381 -1 292 0 q 574 0 471 -1 q 676 4 635 -8 q 743 40 717 16 q 781 101 768 65 q 799 177 793 138 q 806 257 806 216 q 808 334 807 298 q 808 409 808 370 q 802 486 807 449 q 785 556 798 524 q 750 612 772 589 q 707 647 726 636 q 666 662 688 659 q 620 665 644 665 q 561 664 595 664 q 474 665 525 664 q 378 659 424 665 q 299 634 332 652 q 265 579 267 616 q 272 679 269 644 q 279 730 275 713 q 286 755 282 747 q 297 778 290 764 q 329 807 306 796 q 378 824 351 818 q 433 831 406 829 q 478 833 461 833 l 677 833 l 677 987 m 278 328 q 285 436 272 395 q 323 502 298 478 q 381 534 349 525 q 447 543 414 543 q 533 527 501 543 q 582 481 566 511 q 604 406 599 450 q 610 302 610 361 q 599 228 610 261 q 570 171 589 195 q 527 135 551 147 q 476 122 503 122 q 415 122 449 122 q 352 139 382 122 q 301 198 322 155 q 278 328 279 241 z "},"7":{"ha":904,"x_min":61,"x_max":833,"o":"m 61 994 l 64 879 l 612 879 q 614 865 612 878 q 616 835 616 852 q 610 799 615 818 q 593 764 606 779 q 526 645 564 711 q 453 515 489 578 q 385 397 416 453 q 336 311 354 342 q 317 278 318 281 l 317 0 l 526 0 q 527 79 528 46 q 526 141 526 113 q 526 197 525 170 q 529 257 526 224 q 544 283 529 257 q 582 351 558 309 q 637 448 606 393 q 701 560 668 503 q 769 673 734 618 q 833 775 803 729 l 833 997 l 61 994 z "},"8":{"ha":890,"x_min":64,"x_max":819,"o":"m 222 543 q 101 446 138 510 q 64 294 64 382 q 66 246 64 272 q 74 193 68 220 q 87 142 79 167 q 106 100 94 118 q 155 44 127 64 q 221 13 182 24 q 316 1 261 3 q 450 -1 371 -1 q 530 -1 492 -1 q 606 3 571 -1 q 672 16 642 7 q 728 41 703 25 q 770 88 753 60 q 799 150 787 117 q 814 221 810 183 q 819 296 819 258 q 780 438 819 375 q 660 541 741 501 q 749 624 722 582 q 787 750 787 681 q 785 810 787 779 q 773 869 782 840 q 750 924 765 899 q 711 968 734 949 q 596 1016 663 1007 q 429 1025 529 1025 q 288 1013 353 1025 q 178 971 224 1002 q 103 873 119 930 q 86 754 86 817 q 126 619 86 679 q 222 543 157 579 m 335 810 q 366 892 335 861 q 449 924 397 924 q 529 892 497 924 q 561 807 561 860 q 559 742 561 774 q 546 685 557 710 q 512 645 534 660 q 447 629 489 629 q 396 635 418 629 q 360 661 375 642 q 340 716 346 681 q 335 810 334 751 m 323 342 q 355 425 323 393 q 437 456 386 456 q 518 424 486 456 q 550 339 550 392 q 548 274 550 306 q 535 217 546 241 q 501 177 524 192 q 436 161 478 161 q 386 168 407 161 q 350 193 364 174 q 329 248 335 212 q 323 342 322 283 z "},"9":{"ha":926,"x_min":90,"x_max":833,"o":"m 229 17 q 262 16 253 16 q 278 16 272 16 q 290 16 285 16 q 313 16 297 16 q 359 17 329 17 q 444 17 390 17 q 617 44 545 17 q 738 133 690 72 q 810 288 786 193 q 833 518 833 383 q 828 683 833 610 q 818 818 823 755 q 782 920 812 882 q 701 977 751 958 q 581 999 650 996 q 431 999 513 1003 q 267 981 334 1000 q 160 924 200 962 q 105 828 121 886 q 94 694 90 770 q 94 619 94 659 q 99 543 94 581 q 115 472 104 505 q 150 415 126 439 q 247 349 196 368 q 366 330 298 330 q 441 330 400 330 q 519 331 482 329 q 585 339 557 334 q 621 355 612 345 q 614 292 618 315 q 608 253 611 268 q 600 227 604 237 q 587 204 595 216 q 531 155 568 171 q 461 139 494 139 l 224 139 l 229 17 m 615 694 q 607 577 619 618 q 572 517 595 536 q 517 496 549 498 q 447 493 485 493 q 390 497 414 493 q 350 522 366 501 q 326 588 334 543 q 318 714 318 632 q 354 838 318 798 q 444 879 390 879 q 509 876 478 879 q 563 856 539 873 q 601 800 587 838 q 615 694 615 762 z "}," ":{"ha":463,"x_min":0,"x_max":0,"o":""},"!":{"ha":419,"x_min":94,"x_max":329,"o":"m 97 994 l 97 768 l 98 309 l 328 309 l 329 768 l 329 994 l 97 994 m 94 243 l 94 0 l 328 0 l 328 243 l 94 243 z "},"\"":{"ha":610,"x_min":115,"x_max":501,"o":"m 115 991 l 302 676 l 370 715 l 147 1015 l 115 991 m 253 1061 l 449 761 l 501 761 l 300 1061 l 253 1061 z "},"#":{"ha":1095,"x_min":58,"x_max":1018,"o":"m 245 364 l 100 355 l 58 227 l 204 224 l 154 -14 l 311 -16 l 359 222 l 559 229 l 501 -9 l 643 -17 l 701 222 l 878 232 l 926 380 l 730 374 l 789 635 l 985 643 l 1018 794 l 812 768 l 860 1011 l 717 1013 l 668 770 l 469 768 l 519 1011 l 392 1011 l 325 766 l 74 768 l 83 629 l 301 632 l 245 364 m 395 367 l 439 632 l 643 635 l 581 367 l 395 367 z "},"$":{"ha":926,"x_min":37,"x_max":878,"o":"m 848 760 l 595 720 q 561 787 576 768 q 511 825 546 806 l 511 629 q 786 513 717 574 q 878 304 878 431 q 845 169 878 231 q 761 66 812 107 q 652 6 709 24 q 511 -16 594 -13 l 511 -144 l 412 -144 l 412 -16 q 250 16 312 -7 q 143 81 188 39 q 73 170 98 122 q 37 286 49 218 l 311 317 q 343 220 323 250 q 412 168 364 191 l 412 407 q 217 473 275 445 q 118 562 160 500 q 76 711 76 623 q 160 913 76 832 q 412 1003 245 994 l 412 1070 l 511 1070 l 511 1003 q 743 931 663 994 q 848 760 823 869 m 412 828 q 351 793 368 814 q 334 743 334 772 q 352 691 334 713 q 412 654 369 669 l 412 828 m 511 161 q 595 203 568 174 q 622 269 622 233 q 599 328 622 301 q 511 378 576 355 l 511 161 z "},"%":{"ha":1389,"x_min":67,"x_max":1322,"o":"m 911 1011 l 1055 1011 l 480 -51 l 338 -51 l 911 1011 m 67 750 q 97 882 67 819 q 190 978 127 944 q 336 1011 252 1011 q 533 940 461 1011 q 605 750 605 869 q 533 559 605 631 q 336 488 461 488 q 190 522 252 488 q 97 618 127 555 q 67 750 67 680 m 258 749 q 285 627 258 665 q 336 602 302 602 q 387 627 370 602 q 414 749 414 665 q 387 871 414 832 q 336 895 370 895 q 285 871 302 895 q 258 749 258 833 m 784 212 q 814 344 784 282 q 906 440 844 406 q 1053 474 968 474 q 1250 402 1178 474 q 1322 212 1322 331 q 1250 22 1322 94 q 1053 -50 1178 -50 q 906 -16 968 -50 q 814 80 844 18 q 784 212 784 142 m 975 211 q 1002 89 975 127 q 1053 64 1019 64 q 1104 89 1086 64 q 1131 211 1131 127 q 1104 334 1131 295 q 1053 358 1086 358 q 1002 333 1019 358 q 975 211 975 295 z "},"&":{"ha":1235,"x_min":104,"x_max":1178,"o":"m 886 484 l 1102 435 q 1069 340 1085 376 q 1025 255 1054 304 l 1129 184 q 1178 155 1148 172 l 1029 -16 q 945 34 989 5 q 867 83 901 62 q 723 14 795 35 q 496 -16 623 -16 q 201 66 298 -16 q 104 267 104 149 q 161 428 104 352 q 347 555 218 503 q 273 670 293 621 q 252 768 252 718 q 333 943 252 874 q 578 1011 414 1011 q 824 946 745 1011 q 903 790 903 881 q 879 692 903 739 q 821 616 854 646 q 699 530 787 587 q 850 395 772 457 q 886 484 871 437 m 569 658 q 652 721 623 687 q 681 786 681 755 q 656 840 681 818 q 589 862 632 862 q 521 838 547 862 q 494 780 494 813 q 569 658 494 738 m 471 416 q 395 348 414 376 q 376 288 376 319 q 419 199 376 238 q 530 161 462 161 q 696 218 604 161 q 471 416 608 286 z "},"'":{"ha":386,"x_min":58,"x_max":333,"o":"m 58 994 l 333 994 l 333 830 l 290 629 l 102 629 l 58 830 l 58 994 z "},"(":{"ha":541,"x_min":76,"x_max":486,"o":"m 314 1011 l 486 1011 q 358 648 397 814 q 325 345 325 506 q 486 -292 325 35 l 314 -292 q 129 45 182 -106 q 76 361 76 196 q 132 688 76 533 q 314 1011 188 842 z "},")":{"ha":541,"x_min":54,"x_max":465,"o":"m 227 1011 l 54 1011 q 182 648 143 814 q 216 345 216 506 q 54 -292 216 35 l 227 -292 q 411 45 358 -106 q 465 361 465 196 q 409 688 465 533 q 227 1011 353 842 z "},"*":{"ha":772,"x_min":120,"x_max":646,"o":"m 307 1011 l 457 1011 l 445 909 q 428 824 441 871 q 462 842 454 837 q 505 864 490 857 l 600 909 l 646 766 l 542 744 q 457 736 513 739 q 517 682 495 707 l 588 606 l 466 514 l 416 606 q 380 682 405 625 q 345 606 354 620 l 294 514 l 169 606 l 245 682 q 307 736 277 714 q 225 749 276 739 l 120 766 l 169 909 l 263 866 q 337 824 278 859 q 321 909 324 881 l 307 1011 z "},"+":{"ha":917,"x_min":86,"x_max":826,"o":"m 86 606 l 346 606 l 346 867 l 565 867 l 565 606 l 826 606 l 826 387 l 565 387 l 565 127 l 346 127 l 346 387 l 86 387 l 86 606 z "},",":{"ha":463,"x_min":84,"x_max":379,"o":"m 84 274 l 379 274 l 379 47 q 327 -151 379 -79 q 149 -279 275 -224 l 84 -159 q 192 -86 163 -122 q 225 0 222 -50 l 84 0 l 84 274 z "},"-":{"ha":463,"x_min":31,"x_max":432,"o":"m 31 469 l 432 469 l 432 256 l 31 256 l 31 469 z "},".":{"ha":463,"x_min":84,"x_max":379,"o":"m 84 277 l 379 277 l 379 0 l 84 0 l 84 277 z "},"/":{"ha":386,"x_min":1,"x_max":390,"o":"m 249 1011 l 390 1011 l 140 -16 l 1 -16 l 249 1011 z "},":":{"ha":463,"x_min":84,"x_max":379,"o":"m 84 720 l 379 720 l 379 444 l 84 444 l 84 720 m 84 277 l 379 277 l 379 0 l 84 0 l 84 277 z "},";":{"ha":463,"x_min":84,"x_max":379,"o":"m 84 720 l 379 720 l 379 444 l 84 444 l 84 720 m 84 274 l 379 274 l 379 47 q 327 -151 379 -79 q 149 -279 275 -224 l 84 -159 q 192 -86 163 -122 q 225 0 222 -50 l 84 0 l 84 274 z "},"<":{"ha":917,"x_min":73,"x_max":844,"o":"m 844 76 l 73 397 l 73 597 l 844 918 l 844 677 l 375 496 l 844 315 l 844 76 z "},"=":{"ha":917,"x_min":85,"x_max":826,"o":"m 85 774 l 826 774 l 826 553 l 85 553 l 85 774 m 85 440 l 826 440 l 826 220 l 85 220 l 85 440 z "},">":{"ha":917,"x_min":73,"x_max":844,"o":"m 73 76 l 844 397 l 844 597 l 73 918 l 73 677 l 542 496 l 73 315 l 73 76 z "},"?":{"ha":810,"x_min":47,"x_max":770,"o":"m 493 313 q 498 365 498 338 q 499 417 497 392 q 510 465 501 443 q 543 501 518 486 q 598 527 570 518 q 652 549 627 536 q 701 583 677 561 q 745 648 725 606 q 755 688 750 663 q 763 741 760 714 q 768 794 766 768 q 770 833 770 819 q 763 903 770 868 q 743 972 757 939 q 708 1034 729 1006 q 656 1083 686 1063 q 603 1105 633 1099 q 537 1112 572 1111 q 464 1112 501 1114 q 389 1111 427 1111 q 233 1105 294 1111 q 135 1073 172 1099 q 78 994 97 1047 q 47 847 58 940 l 174 844 q 190 917 175 889 q 227 961 204 945 q 276 984 249 978 q 330 991 302 990 q 382 991 358 993 q 425 990 407 990 q 503 973 472 990 q 550 928 533 956 q 572 869 567 901 q 578 809 578 838 q 576 759 579 781 q 571 730 572 737 q 547 692 564 707 q 509 668 530 677 q 466 651 488 659 q 428 639 444 644 q 344 601 379 621 q 289 543 309 582 q 265 453 269 503 q 261 336 261 403 l 261 311 l 493 313 m 258 243 l 258 0 l 503 0 l 503 243 l 258 243 z "},"@":{"ha":1028,"x_min":-4,"x_max":1030,"o":"m 784 779 l 699 242 q 696 218 696 226 q 703 199 696 206 q 724 193 710 193 q 794 220 755 193 q 890 338 852 261 q 928 524 928 415 q 825 807 928 703 q 549 911 722 911 q 317 850 422 911 q 156 673 212 789 q 99 416 99 557 q 222 70 99 198 q 540 -58 345 -58 q 723 -26 635 -58 q 891 69 810 6 l 1030 69 q 924 -34 975 3 q 753 -123 850 -89 q 543 -158 655 -158 q 261 -85 386 -158 q 66 121 136 -13 q -4 417 -4 256 q 69 725 -4 587 q 262 938 142 864 q 549 1012 383 1012 q 896 876 762 1012 q 1030 526 1030 741 q 978 292 1030 398 q 825 125 926 186 q 678 77 747 77 q 612 96 637 77 q 574 157 586 115 q 491 95 528 113 q 410 77 454 77 q 255 152 320 77 q 190 368 190 227 q 273 668 190 534 q 480 802 357 802 q 565 780 528 802 q 640 702 602 758 l 652 779 l 784 779 m 332 334 q 367 209 332 254 q 433 176 393 176 q 511 213 476 176 q 573 360 547 250 q 600 559 600 471 q 571 659 600 625 q 503 693 543 693 q 425 659 458 693 q 356 515 379 614 q 332 334 332 416 z "},"A":{"ha":957,"x_min":45,"x_max":888,"o":"m 647 118 l 669 20 l 888 11 l 636 1089 l 476 1092 l 45 45 l 248 33 l 294 139 l 647 118 m 621 297 l 358 314 l 529 753 l 621 297 z "},"B":{"ha":913,"x_min":85,"x_max":817,"o":"m 85 1095 l 109 8 l 492 20 q 629 36 525 20 q 656 42 648 39 q 667 50 664 46 q 672 57 669 53 q 685 68 675 61 q 782 168 747 106 q 814 309 817 229 q 781 477 811 404 q 705 574 751 550 q 738 609 728 599 q 751 623 747 619 q 758 629 755 627 q 766 643 760 632 q 782 688 778 660 q 787 748 786 717 q 785 810 787 779 q 783 863 783 840 q 760 959 782 916 q 699 1036 737 1002 q 661 1067 679 1054 q 622 1089 643 1080 q 575 1103 602 1099 q 513 1107 549 1107 l 85 1095 m 275 652 l 267 935 l 468 940 q 566 910 538 942 q 596 835 595 879 q 596 771 596 803 q 586 715 596 741 q 549 674 575 690 q 473 657 524 659 l 275 652 m 279 174 l 277 453 l 465 464 q 538 451 505 465 q 594 417 571 437 q 630 371 616 396 q 643 325 643 346 q 633 276 643 300 q 602 231 623 252 q 549 196 581 210 q 479 182 518 183 l 279 174 z "},"C":{"ha":899,"x_min":92,"x_max":799,"o":"m 612 318 q 589 250 603 272 q 554 219 575 228 q 502 212 533 211 q 428 212 471 212 q 390 211 404 212 q 364 211 375 210 q 343 217 353 212 q 321 229 334 221 q 295 264 304 240 q 282 319 286 288 q 277 390 278 351 q 275 469 275 428 q 273 565 275 509 q 274 679 271 621 q 288 788 277 737 q 325 867 298 839 q 355 889 339 880 q 390 904 371 899 q 435 912 410 909 q 493 914 460 914 q 556 906 539 914 q 585 882 574 897 q 598 861 595 869 q 604 846 602 852 q 606 831 606 839 q 611 812 607 823 l 786 817 q 758 963 779 909 q 695 1043 737 1017 q 584 1075 653 1069 q 412 1078 514 1080 q 225 1038 290 1075 q 131 936 160 1002 q 97 779 102 871 q 92 571 93 686 q 92 461 92 525 q 97 333 92 397 q 112 214 102 269 q 142 129 122 158 q 199 72 164 94 q 276 36 235 49 q 360 17 317 22 q 440 11 403 11 q 608 27 541 12 q 719 76 676 41 q 780 168 761 110 q 798 317 799 227 l 612 318 z "},"D":{"ha":893,"x_min":113,"x_max":777,"o":"m 113 1103 l 113 14 l 378 14 q 427 17 399 14 q 485 25 454 20 q 546 37 515 31 q 602 50 576 43 q 663 78 636 60 q 710 122 690 97 q 742 175 730 147 q 758 229 754 203 q 770 329 766 290 q 775 399 774 368 q 776 458 777 429 q 775 526 775 486 q 775 642 775 578 q 769 768 775 705 q 748 886 762 831 q 708 975 734 942 q 653 1034 681 1010 q 588 1074 625 1059 q 503 1096 551 1089 q 387 1103 454 1103 l 113 1103 m 307 896 q 351 898 323 897 q 409 897 379 899 q 465 887 439 895 q 504 865 492 879 q 527 834 517 850 q 545 791 536 818 q 560 724 553 765 q 574 618 567 684 q 574 560 576 590 q 568 502 572 530 q 558 449 564 473 q 549 408 553 425 q 527 350 539 372 q 501 314 514 328 q 475 293 488 300 q 453 281 463 286 q 424 270 443 275 q 384 259 404 264 q 343 251 363 254 q 314 245 323 248 l 307 896 z "},"E":{"ha":873,"x_min":114,"x_max":762,"o":"m 114 1080 l 135 17 l 762 31 l 757 142 l 363 129 l 339 458 l 681 456 l 669 624 l 325 596 l 297 937 l 724 940 l 729 1100 l 114 1080 z "},"F":{"ha":847,"x_min":98,"x_max":760,"o":"m 98 1064 l 151 4 l 318 17 l 294 504 l 689 534 l 675 728 l 285 703 l 273 916 l 760 951 l 753 1107 l 98 1064 z "},"G":{"ha":985,"x_min":90,"x_max":890,"o":"m 618 374 q 672 362 656 374 q 687 333 688 351 q 673 294 686 315 q 639 252 660 272 l 608 235 q 563 220 579 224 q 534 216 547 216 q 510 216 522 216 q 478 214 498 216 q 405 215 435 207 q 354 252 375 222 q 321 336 334 281 q 300 482 309 392 q 284 649 292 574 q 283 779 277 724 q 316 868 289 833 q 404 914 343 903 q 483 926 444 921 q 552 926 521 932 q 604 896 583 920 q 629 821 625 872 l 825 840 q 812 935 819 893 q 786 1008 804 977 q 768 1035 778 1023 q 743 1055 758 1046 q 704 1072 728 1064 q 646 1088 681 1079 q 549 1096 604 1097 q 412 1088 494 1095 q 336 1076 370 1083 q 276 1058 302 1069 q 226 1033 249 1047 q 180 1000 203 1018 q 112 905 131 960 q 92 783 93 850 q 100 641 90 717 q 118 485 110 566 q 126 398 121 446 q 140 302 131 350 q 163 212 149 254 q 201 144 178 170 q 249 86 231 111 q 296 46 268 61 q 368 26 323 31 q 494 28 412 21 q 620 47 567 35 q 718 77 673 60 q 828 153 785 102 q 890 283 872 204 l 872 519 l 607 489 l 618 374 z "},"H":{"ha":996,"x_min":102,"x_max":886,"o":"m 102 1078 l 157 14 l 351 16 l 342 454 l 644 475 l 669 31 l 886 41 l 831 1105 l 614 1095 l 625 669 l 332 644 l 296 1080 l 102 1078 z "},"I":{"ha":510,"x_min":140,"x_max":380,"o":"m 140 1111 l 140 0 l 380 0 l 364 1111 l 140 1111 z "},"J":{"ha":825,"x_min":83,"x_max":730,"o":"m 561 1089 l 519 358 q 471 217 514 267 q 376 171 428 168 q 353 173 368 171 q 324 177 338 175 q 301 180 310 179 q 298 182 293 182 q 290 187 300 182 q 268 203 281 192 q 245 237 256 215 q 236 292 235 258 l 94 317 q 87 220 83 261 q 110 139 90 179 q 152 88 132 110 q 201 52 171 66 q 276 29 231 37 q 399 17 322 21 q 454 15 433 14 q 490 20 475 17 q 519 30 505 24 q 555 45 533 36 q 597 69 581 56 q 626 97 614 82 q 648 131 639 113 q 665 172 657 150 q 688 284 685 216 q 696 439 690 353 l 730 1078 l 561 1089 z "},"K":{"ha":982,"x_min":102,"x_max":895,"o":"m 102 1067 l 165 5 l 357 14 l 346 372 l 663 29 l 895 50 l 443 574 l 818 1100 l 615 1092 l 311 700 l 293 1076 l 102 1067 z "},"L":{"ha":909,"x_min":85,"x_max":831,"o":"m 85 1075 l 132 9 l 831 41 l 819 229 l 340 207 l 261 1078 l 85 1075 z "},"M":{"ha":1078,"x_min":92,"x_max":971,"o":"m 92 1047 l 161 28 l 332 36 l 311 538 l 555 89 l 743 549 l 774 78 l 971 92 l 901 1108 l 729 1093 l 525 549 l 262 1059 l 92 1047 z "},"N":{"ha":926,"x_min":78,"x_max":810,"o":"m 167 1114 l 78 61 l 281 41 l 325 522 l 557 36 l 720 4 l 810 1057 l 603 1075 l 557 599 l 355 1093 l 167 1114 z "},"O":{"ha":962,"x_min":103,"x_max":856,"o":"m 163 932 q 132 840 146 899 q 111 706 118 781 q 104 549 103 632 q 115 386 104 467 q 151 234 126 306 q 215 109 175 161 q 312 30 254 57 q 447 14 370 3 q 664 37 583 9 q 788 126 745 65 q 843 282 831 187 q 856 507 856 376 q 841 802 856 688 q 780 981 825 917 q 653 1070 734 1046 q 439 1095 572 1095 q 331 1079 378 1095 q 250 1041 285 1064 q 194 990 215 1018 q 163 937 172 962 l 163 932 m 279 599 q 315 824 279 753 q 444 896 351 896 q 542 890 501 896 q 610 847 583 884 q 650 733 637 811 q 663 510 663 654 q 660 428 663 468 q 651 353 657 387 q 635 292 644 319 q 612 249 627 265 q 537 205 585 216 q 441 193 490 193 q 376 217 401 193 q 334 276 350 241 q 308 349 318 311 q 289 416 298 387 l 279 599 z "},"P":{"ha":825,"x_min":111,"x_max":724,"o":"m 131 1089 l 111 11 l 273 11 l 288 458 l 414 460 q 545 483 488 461 q 640 544 602 505 q 699 633 679 582 q 722 742 720 684 q 712 868 724 807 q 671 976 700 929 q 594 1051 642 1022 q 478 1082 547 1080 l 131 1089 m 329 643 l 330 921 l 390 920 q 462 902 433 918 q 506 861 490 885 q 528 810 522 838 q 534 760 534 782 q 526 714 533 736 q 500 675 518 692 q 452 649 482 659 q 379 642 422 640 l 329 643 z "},"Q":{"ha":974,"x_min":100,"x_max":895,"o":"m 789 193 q 827 282 815 227 q 842 402 839 338 q 844 533 846 467 q 842 654 842 600 q 831 824 842 753 q 797 944 821 895 q 735 1022 772 993 q 643 1067 697 1051 q 542 1088 595 1080 q 411 1092 489 1096 q 316 1081 350 1089 q 264 1063 282 1072 q 238 1046 245 1054 q 224 1035 231 1038 q 155 958 179 1015 q 118 826 131 900 q 103 672 106 751 q 100 532 100 593 q 102 403 100 471 q 113 272 104 335 q 138 158 121 210 q 187 81 155 107 q 252 38 221 53 q 311 17 282 24 q 367 11 339 11 q 422 11 395 11 q 488 9 460 11 q 541 7 515 8 q 591 7 566 7 q 652 11 616 8 q 689 26 679 18 q 701 40 699 35 q 703 47 703 46 q 714 41 704 49 q 742 21 732 29 q 761 9 753 14 q 779 -1 770 4 q 803 -17 787 -7 l 895 115 q 865 133 875 127 q 847 144 856 139 q 826 160 839 150 q 789 193 814 170 m 621 289 q 571 319 585 311 q 551 331 557 328 q 536 339 545 335 q 503 358 528 343 l 503 215 q 513 203 504 208 q 532 192 522 197 q 548 182 542 186 q 549 179 554 179 q 470 172 507 176 q 400 171 432 168 q 342 189 368 174 q 298 242 315 204 q 273 347 281 281 q 268 518 265 414 q 281 689 271 623 q 301 794 292 755 q 327 865 311 839 q 360 906 342 892 q 398 926 378 921 q 439 935 418 932 q 567 921 524 947 q 630 839 611 895 q 652 702 650 783 q 654 524 654 621 q 654 448 654 485 q 649 380 653 411 q 639 325 646 349 q 621 289 632 301 z "},"R":{"ha":957,"x_min":92,"x_max":856,"o":"m 92 75 l 268 58 l 307 475 l 335 472 q 350 471 345 472 q 358 470 355 471 q 365 466 361 469 q 376 457 368 463 q 392 435 382 452 q 413 396 401 418 q 436 353 425 375 q 456 318 447 332 l 643 16 l 852 1 q 724 226 775 139 q 641 364 672 313 q 595 438 610 415 q 576 468 581 461 q 649 476 611 473 q 705 489 686 479 q 809 580 771 522 q 854 720 847 637 q 855 774 856 743 q 851 837 854 806 q 842 897 848 868 q 825 942 835 925 q 710 1040 786 1010 q 679 1054 692 1047 q 652 1064 667 1060 q 617 1071 637 1068 q 561 1076 596 1074 l 171 1097 l 92 75 m 326 689 l 346 922 l 497 913 q 534 909 514 911 q 574 903 554 907 q 612 891 595 899 q 640 871 629 884 q 663 841 656 854 q 672 816 669 828 q 674 793 675 804 q 672 768 673 782 q 646 710 669 734 q 591 684 623 686 q 555 680 576 681 q 514 679 533 679 q 478 680 494 679 q 457 681 463 681 l 326 689 z "},"S":{"ha":888,"x_min":107,"x_max":790,"o":"m 107 265 q 113 203 110 228 q 122 161 115 179 q 142 126 129 143 q 180 85 155 110 q 228 46 205 61 q 280 24 250 32 q 352 14 310 17 q 456 11 393 11 q 509 11 492 11 q 535 12 525 11 q 555 19 545 14 q 589 33 566 24 q 738 156 685 75 q 790 332 790 236 q 750 479 790 414 q 624 589 708 546 q 587 606 602 600 q 553 617 572 611 q 504 628 533 623 q 425 644 475 633 q 382 658 404 648 q 341 683 361 668 q 307 716 322 697 q 286 758 292 734 q 282 781 283 765 q 282 818 281 798 q 288 858 283 838 q 302 897 292 879 q 327 923 311 911 q 365 944 343 936 q 411 954 386 951 q 463 949 436 956 q 482 944 465 947 q 519 929 498 940 q 558 895 539 918 q 587 833 578 872 l 758 833 q 726 954 745 907 q 673 1027 707 1000 q 583 1066 639 1054 q 439 1086 528 1079 q 260 1063 323 1088 q 168 995 197 1038 q 133 898 139 953 q 123 786 126 843 q 142 668 123 728 q 203 570 160 608 q 242 536 224 550 q 283 512 260 522 q 342 494 307 501 q 431 482 376 488 q 493 468 468 478 q 535 447 518 458 q 564 424 553 436 q 583 404 575 412 q 595 382 591 396 q 600 353 599 368 q 600 322 600 338 q 599 297 599 307 q 587 254 599 277 q 554 211 575 231 q 506 179 533 192 q 444 165 478 165 q 403 164 422 165 q 367 164 383 163 q 337 172 351 165 q 311 193 323 178 q 299 209 304 203 q 289 223 293 215 q 281 242 285 232 q 275 271 278 253 l 107 265 z "},"T":{"ha":932,"x_min":97,"x_max":822,"o":"m 97 1043 l 106 868 l 363 897 l 444 14 l 610 25 l 553 909 l 822 929 l 815 1103 l 97 1043 z "},"U":{"ha":946,"x_min":98,"x_max":839,"o":"m 585 1093 l 643 378 q 606 247 648 294 q 485 195 564 199 q 372 229 404 189 q 334 353 339 269 l 283 1069 l 98 1057 l 136 416 q 141 368 138 399 q 149 301 144 336 q 161 231 154 265 q 176 175 168 197 q 198 126 187 146 q 223 91 208 106 q 258 63 237 75 q 307 37 278 50 q 362 19 336 24 q 432 11 389 14 q 469 10 453 9 q 498 12 485 11 q 525 17 511 14 q 557 25 539 21 q 606 37 590 33 q 632 43 623 40 q 651 50 642 46 q 684 62 661 54 q 709 74 699 69 q 728 86 720 79 q 746 102 737 93 q 770 126 755 111 q 812 198 798 158 q 833 281 827 237 q 839 370 839 325 q 836 460 839 415 l 791 1105 l 585 1093 z "},"V":{"ha":865,"x_min":102,"x_max":760,"o":"m 102 1089 l 366 12 l 418 11 l 760 1074 l 561 1079 l 407 567 l 283 1084 l 102 1089 z "},"W":{"ha":1072,"x_min":104,"x_max":970,"o":"m 104 1093 l 248 37 l 350 31 l 494 476 l 590 17 l 676 11 l 970 1036 l 782 1055 l 644 549 l 568 1063 l 498 1067 l 339 589 l 275 1088 l 104 1093 z "},"X":{"ha":1015,"x_min":97,"x_max":907,"o":"m 121 1078 l 414 530 l 97 39 l 334 25 l 524 355 l 694 20 l 907 20 l 652 541 l 904 1069 l 708 1069 l 524 694 l 342 1072 l 121 1078 z "},"Y":{"ha":1013,"x_min":89,"x_max":922,"o":"m 89 1069 l 408 555 l 416 0 l 602 11 l 596 541 l 922 1072 l 717 1078 l 505 730 l 293 1067 l 89 1069 z "},"Z":{"ha":987,"x_min":72,"x_max":890,"o":"m 72 1029 l 77 875 l 574 940 l 115 161 l 131 3 l 890 89 l 875 256 l 343 193 l 799 961 l 791 1112 l 72 1029 z "},"[":{"ha":541,"x_min":92,"x_max":509,"o":"m 92 994 l 509 994 l 509 780 l 344 780 l 344 -62 l 509 -62 l 509 -276 l 92 -276 l 92 994 z "},"\\":{"ha":386,"x_min":-4,"x_max":385,"o":"m 137 1011 l -4 1011 l 246 -16 l 385 -16 l 137 1011 z "},"]":{"ha":541,"x_min":32,"x_max":449,"o":"m 449 994 l 32 994 l 32 780 l 197 780 l 197 -62 l 32 -62 l 32 -276 l 449 -276 l 449 994 z "},"^":{"ha":917,"x_min":85,"x_max":827,"o":"m 361 1011 l 551 1011 l 827 460 l 588 460 l 457 793 l 325 460 l 85 460 l 361 1011 z "},"_":{"ha":694,"x_min":-8,"x_max":703,"o":"m -8 -104 l 703 -104 l 703 -174 l -8 -174 l -8 -104 z "},"`":{"ha":463,"x_min":1,"x_max":347,"o":"m 1 1011 l 236 1011 l 347 809 l 217 809 l 1 1011 z "},"a":{"ha":957,"x_min":45,"x_max":888,"o":"m 647 118 l 669 20 l 888 11 l 636 1089 l 476 1092 l 45 45 l 248 33 l 294 139 l 647 118 m 621 297 l 358 314 l 529 753 l 621 297 z "},"b":{"ha":913,"x_min":85,"x_max":817,"o":"m 85 1095 l 109 8 l 492 20 q 629 36 525 20 q 656 42 648 39 q 667 50 664 46 q 672 57 669 53 q 685 68 675 61 q 782 168 747 106 q 814 309 817 229 q 781 477 811 404 q 705 574 751 550 q 738 609 728 599 q 751 623 747 619 q 758 629 755 627 q 766 643 760 632 q 782 688 778 660 q 787 748 786 717 q 785 810 787 779 q 783 863 783 840 q 760 959 782 916 q 699 1036 737 1002 q 661 1067 679 1054 q 622 1089 643 1080 q 575 1103 602 1099 q 513 1107 549 1107 l 85 1095 m 275 652 l 267 935 l 468 940 q 566 910 538 942 q 596 835 595 879 q 596 771 596 803 q 586 715 596 741 q 549 674 575 690 q 473 657 524 659 l 275 652 m 279 174 l 277 453 l 465 464 q 538 451 505 465 q 594 417 571 437 q 630 371 616 396 q 643 325 643 346 q 633 276 643 300 q 602 231 623 252 q 549 196 581 210 q 479 182 518 183 l 279 174 z "},"c":{"ha":899,"x_min":92,"x_max":799,"o":"m 612 318 q 589 250 603 272 q 554 219 575 228 q 502 212 533 211 q 428 212 471 212 q 390 211 404 212 q 364 211 375 210 q 343 217 353 212 q 321 229 334 221 q 295 264 304 240 q 282 319 286 288 q 277 390 278 351 q 275 469 275 428 q 273 565 275 509 q 274 679 271 621 q 288 788 277 737 q 325 867 298 839 q 355 889 339 880 q 390 904 371 899 q 435 912 410 909 q 493 914 460 914 q 556 906 539 914 q 585 882 574 897 q 598 861 595 869 q 604 846 602 852 q 606 831 606 839 q 611 812 607 823 l 786 817 q 758 963 779 909 q 695 1043 737 1017 q 584 1075 653 1069 q 412 1078 514 1080 q 225 1038 290 1075 q 131 936 160 1002 q 97 779 102 871 q 92 571 93 686 q 92 461 92 525 q 97 333 92 397 q 112 214 102 269 q 142 129 122 158 q 199 72 164 94 q 276 36 235 49 q 360 17 317 22 q 440 11 403 11 q 608 27 541 12 q 719 76 676 41 q 780 168 761 110 q 798 317 799 227 l 612 318 z "},"d":{"ha":893,"x_min":113,"x_max":777,"o":"m 113 1103 l 113 14 l 378 14 q 427 17 399 14 q 485 25 454 20 q 546 37 515 31 q 602 50 576 43 q 663 78 636 60 q 710 122 690 97 q 742 175 730 147 q 758 229 754 203 q 770 329 766 290 q 775 399 774 368 q 776 458 777 429 q 775 526 775 486 q 775 642 775 578 q 769 768 775 705 q 748 886 762 831 q 708 975 734 942 q 653 1034 681 1010 q 588 1074 625 1059 q 503 1096 551 1089 q 387 1103 454 1103 l 113 1103 m 307 896 q 351 898 323 897 q 409 897 379 899 q 465 887 439 895 q 504 865 492 879 q 527 834 517 850 q 545 791 536 818 q 560 724 553 765 q 574 618 567 684 q 574 560 576 590 q 568 502 572 530 q 558 449 564 473 q 549 408 553 425 q 527 350 539 372 q 501 314 514 328 q 475 293 488 300 q 453 281 463 286 q 424 270 443 275 q 384 259 404 264 q 343 251 363 254 q 314 245 323 248 l 307 896 z "},"e":{"ha":873,"x_min":114,"x_max":762,"o":"m 114 1080 l 135 17 l 762 31 l 757 142 l 363 129 l 339 458 l 681 456 l 669 624 l 325 596 l 297 937 l 724 940 l 729 1100 l 114 1080 z "},"f":{"ha":847,"x_min":98,"x_max":760,"o":"m 98 1064 l 151 4 l 318 17 l 294 504 l 689 534 l 675 728 l 285 703 l 273 916 l 760 951 l 753 1107 l 98 1064 z "},"g":{"ha":985,"x_min":90,"x_max":890,"o":"m 618 374 q 672 362 656 374 q 687 333 688 351 q 673 294 686 315 q 639 252 660 272 l 608 235 q 563 220 579 224 q 534 216 547 216 q 510 216 522 216 q 478 214 498 216 q 405 215 435 207 q 354 252 375 222 q 321 336 334 281 q 300 482 309 392 q 284 649 292 574 q 283 779 277 724 q 316 868 289 833 q 404 914 343 903 q 483 926 444 921 q 552 926 521 932 q 604 896 583 920 q 629 821 625 872 l 825 840 q 812 935 819 893 q 786 1008 804 977 q 768 1035 778 1023 q 743 1055 758 1046 q 704 1072 728 1064 q 646 1088 681 1079 q 549 1096 604 1097 q 412 1088 494 1095 q 336 1076 370 1083 q 276 1058 302 1069 q 226 1033 249 1047 q 180 1000 203 1018 q 112 905 131 960 q 92 783 93 850 q 100 641 90 717 q 118 485 110 566 q 126 398 121 446 q 140 302 131 350 q 163 212 149 254 q 201 144 178 170 q 249 86 231 111 q 296 46 268 61 q 368 26 323 31 q 494 28 412 21 q 620 47 567 35 q 718 77 673 60 q 828 153 785 102 q 890 283 872 204 l 872 519 l 607 489 l 618 374 z "},"h":{"ha":996,"x_min":102,"x_max":886,"o":"m 102 1078 l 157 14 l 351 16 l 342 454 l 644 475 l 669 31 l 886 41 l 831 1105 l 614 1095 l 625 669 l 332 644 l 296 1080 l 102 1078 z "},"i":{"ha":510,"x_min":140,"x_max":380,"o":"m 140 1111 l 140 0 l 380 0 l 364 1111 l 140 1111 z "},"j":{"ha":825,"x_min":83,"x_max":730,"o":"m 561 1089 l 519 358 q 471 217 514 267 q 376 171 428 168 q 353 173 368 171 q 324 177 338 175 q 301 180 310 179 q 298 182 293 182 q 290 187 300 182 q 268 203 281 192 q 245 237 256 215 q 236 292 235 258 l 94 317 q 87 220 83 261 q 110 139 90 179 q 152 88 132 110 q 201 52 171 66 q 276 29 231 37 q 399 17 322 21 q 454 15 433 14 q 490 20 475 17 q 519 30 505 24 q 555 45 533 36 q 597 69 581 56 q 626 97 614 82 q 648 131 639 113 q 665 172 657 150 q 688 284 685 216 q 696 439 690 353 l 730 1078 l 561 1089 z "},"k":{"ha":982,"x_min":102,"x_max":895,"o":"m 102 1067 l 165 5 l 357 14 l 346 372 l 663 29 l 895 50 l 443 574 l 818 1100 l 615 1092 l 311 700 l 293 1076 l 102 1067 z "},"l":{"ha":909,"x_min":85,"x_max":831,"o":"m 85 1075 l 132 9 l 831 41 l 819 229 l 340 207 l 261 1078 l 85 1075 z "},"m":{"ha":1078,"x_min":92,"x_max":971,"o":"m 92 1047 l 161 28 l 332 36 l 311 538 l 555 89 l 743 549 l 774 78 l 971 92 l 901 1108 l 729 1093 l 525 549 l 262 1059 l 92 1047 z "},"n":{"ha":926,"x_min":78,"x_max":810,"o":"m 167 1114 l 78 61 l 281 41 l 325 522 l 557 36 l 720 4 l 810 1057 l 603 1075 l 557 599 l 355 1093 l 167 1114 z "},"o":{"ha":962,"x_min":103,"x_max":856,"o":"m 163 932 q 132 840 146 899 q 111 706 118 781 q 104 549 103 632 q 115 386 104 467 q 151 234 126 306 q 215 109 175 161 q 312 30 254 57 q 447 14 370 3 q 664 37 583 9 q 788 126 745 65 q 843 282 831 187 q 856 507 856 376 q 841 802 856 688 q 780 981 825 917 q 653 1070 734 1046 q 439 1095 572 1095 q 331 1079 378 1095 q 250 1041 285 1064 q 194 990 215 1018 q 163 937 172 962 l 163 932 m 279 599 q 315 824 279 753 q 444 896 351 896 q 542 890 501 896 q 610 847 583 884 q 650 733 637 811 q 663 510 663 654 q 660 428 663 468 q 651 353 657 387 q 635 292 644 319 q 612 249 627 265 q 537 205 585 216 q 441 193 490 193 q 376 217 401 193 q 334 276 350 241 q 308 349 318 311 q 289 416 298 387 l 279 599 z "},"p":{"ha":825,"x_min":111,"x_max":724,"o":"m 131 1089 l 111 11 l 273 11 l 288 458 l 414 460 q 545 483 488 461 q 640 544 602 505 q 699 633 679 582 q 722 742 720 684 q 712 868 724 807 q 671 976 700 929 q 594 1051 642 1022 q 478 1082 547 1080 l 131 1089 m 329 643 l 330 921 l 390 920 q 462 902 433 918 q 506 861 490 885 q 528 810 522 838 q 534 760 534 782 q 526 714 533 736 q 500 675 518 692 q 452 649 482 659 q 379 642 422 640 l 329 643 z "},"q":{"ha":974,"x_min":100,"x_max":895,"o":"m 789 193 q 827 282 815 227 q 842 402 839 338 q 844 533 846 467 q 842 654 842 600 q 831 824 842 753 q 797 944 821 895 q 735 1022 772 993 q 643 1067 697 1051 q 542 1088 595 1080 q 411 1092 489 1096 q 316 1081 350 1089 q 264 1063 282 1072 q 238 1046 245 1054 q 224 1035 231 1038 q 155 958 179 1015 q 118 826 131 900 q 103 672 106 751 q 100 532 100 593 q 102 403 100 471 q 113 272 104 335 q 138 158 121 210 q 187 81 155 107 q 252 38 221 53 q 311 17 282 24 q 367 11 339 11 q 422 11 395 11 q 488 9 460 11 q 541 7 515 8 q 591 7 566 7 q 652 11 616 8 q 689 26 679 18 q 701 40 699 35 q 703 47 703 46 q 714 41 704 49 q 742 21 732 29 q 761 9 753 14 q 779 -1 770 4 q 803 -17 787 -7 l 895 115 q 865 133 875 127 q 847 144 856 139 q 826 160 839 150 q 789 193 814 170 m 621 289 q 571 319 585 311 q 551 331 557 328 q 536 339 545 335 q 503 358 528 343 l 503 215 q 513 203 504 208 q 532 192 522 197 q 548 182 542 186 q 549 179 554 179 q 470 172 507 176 q 400 171 432 168 q 342 189 368 174 q 298 242 315 204 q 273 347 281 281 q 268 518 265 414 q 281 689 271 623 q 301 794 292 755 q 327 865 311 839 q 360 906 342 892 q 398 926 378 921 q 439 935 418 932 q 567 921 524 947 q 630 839 611 895 q 652 702 650 783 q 654 524 654 621 q 654 448 654 485 q 649 380 653 411 q 639 325 646 349 q 621 289 632 301 z "},"r":{"ha":957,"x_min":92,"x_max":856,"o":"m 92 75 l 268 58 l 307 475 l 335 472 q 350 471 345 472 q 358 470 355 471 q 365 466 361 469 q 376 457 368 463 q 392 435 382 452 q 413 396 401 418 q 436 353 425 375 q 456 318 447 332 l 643 16 l 852 1 q 724 226 775 139 q 641 364 672 313 q 595 438 610 415 q 576 468 581 461 q 649 476 611 473 q 705 489 686 479 q 809 580 771 522 q 854 720 847 637 q 855 774 856 743 q 851 837 854 806 q 842 897 848 868 q 825 942 835 925 q 710 1040 786 1010 q 679 1054 692 1047 q 652 1064 667 1060 q 617 1071 637 1068 q 561 1076 596 1074 l 171 1097 l 92 75 m 326 689 l 346 922 l 497 913 q 534 909 514 911 q 574 903 554 907 q 612 891 595 899 q 640 871 629 884 q 663 841 656 854 q 672 816 669 828 q 674 793 675 804 q 672 768 673 782 q 646 710 669 734 q 591 684 623 686 q 555 680 576 681 q 514 679 533 679 q 478 680 494 679 q 457 681 463 681 l 326 689 z "},"s":{"ha":888,"x_min":107,"x_max":790,"o":"m 107 265 q 113 203 110 228 q 122 161 115 179 q 142 126 129 143 q 180 85 155 110 q 228 46 205 61 q 280 24 250 32 q 352 14 310 17 q 456 11 393 11 q 509 11 492 11 q 535 12 525 11 q 555 19 545 14 q 589 33 566 24 q 738 156 685 75 q 790 332 790 236 q 750 479 790 414 q 624 589 708 546 q 587 606 602 600 q 553 617 572 611 q 504 628 533 623 q 425 644 475 633 q 382 658 404 648 q 341 683 361 668 q 307 716 322 697 q 286 758 292 734 q 282 781 283 765 q 282 818 281 798 q 288 858 283 838 q 302 897 292 879 q 327 923 311 911 q 365 944 343 936 q 411 954 386 951 q 463 949 436 956 q 482 944 465 947 q 519 929 498 940 q 558 895 539 918 q 587 833 578 872 l 758 833 q 726 954 745 907 q 673 1027 707 1000 q 583 1066 639 1054 q 439 1086 528 1079 q 260 1063 323 1088 q 168 995 197 1038 q 133 898 139 953 q 123 786 126 843 q 142 668 123 728 q 203 570 160 608 q 242 536 224 550 q 283 512 260 522 q 342 494 307 501 q 431 482 376 488 q 493 468 468 478 q 535 447 518 458 q 564 424 553 436 q 583 404 575 412 q 595 382 591 396 q 600 353 599 368 q 600 322 600 338 q 599 297 599 307 q 587 254 599 277 q 554 211 575 231 q 506 179 533 192 q 444 165 478 165 q 403 164 422 165 q 367 164 383 163 q 337 172 351 165 q 311 193 323 178 q 299 209 304 203 q 289 223 293 215 q 281 242 285 232 q 275 271 278 253 l 107 265 z "},"t":{"ha":932,"x_min":97,"x_max":822,"o":"m 97 1043 l 106 868 l 363 897 l 444 14 l 610 25 l 553 909 l 822 929 l 815 1103 l 97 1043 z "},"u":{"ha":946,"x_min":98,"x_max":839,"o":"m 585 1093 l 643 378 q 606 247 648 294 q 485 195 564 199 q 372 229 404 189 q 334 353 339 269 l 283 1069 l 98 1057 l 136 416 q 141 368 138 399 q 149 301 144 336 q 161 231 154 265 q 176 175 168 197 q 198 126 187 146 q 223 91 208 106 q 258 63 237 75 q 307 37 278 50 q 362 19 336 24 q 432 11 389 14 q 469 10 453 9 q 498 12 485 11 q 525 17 511 14 q 557 25 539 21 q 606 37 590 33 q 632 43 623 40 q 651 50 642 46 q 684 62 661 54 q 709 74 699 69 q 728 86 720 79 q 746 102 737 93 q 770 126 755 111 q 812 198 798 158 q 833 281 827 237 q 839 370 839 325 q 836 460 839 415 l 791 1105 l 585 1093 z "},"v":{"ha":865,"x_min":102,"x_max":760,"o":"m 102 1089 l 366 12 l 418 11 l 760 1074 l 561 1079 l 407 567 l 283 1084 l 102 1089 z "},"w":{"ha":1072,"x_min":104,"x_max":970,"o":"m 104 1093 l 248 37 l 350 31 l 494 476 l 590 17 l 676 11 l 970 1036 l 782 1055 l 644 549 l 568 1063 l 498 1067 l 339 589 l 275 1088 l 104 1093 z "},"x":{"ha":1015,"x_min":97,"x_max":907,"o":"m 121 1078 l 414 530 l 97 39 l 334 25 l 524 355 l 694 20 l 907 20 l 652 541 l 904 1069 l 708 1069 l 524 694 l 342 1072 l 121 1078 z "},"y":{"ha":1013,"x_min":89,"x_max":922,"o":"m 89 1069 l 408 555 l 416 0 l 602 11 l 596 541 l 922 1072 l 717 1078 l 505 730 l 293 1067 l 89 1069 z "},"z":{"ha":987,"x_min":72,"x_max":890,"o":"m 72 1029 l 77 875 l 574 940 l 115 161 l 131 3 l 890 89 l 875 256 l 343 193 l 799 961 l 791 1112 l 72 1029 z "},"{":{"ha":541,"x_min":18,"x_max":525,"o":"m 525 1011 l 525 789 l 494 789 q 430 771 452 789 q 400 715 409 753 q 395 604 395 695 q 376 460 394 513 q 337 396 362 420 q 275 359 318 378 q 342 315 320 338 q 380 246 364 292 q 395 98 395 199 q 405 -22 395 6 q 436 -61 414 -50 q 525 -73 458 -73 l 525 -292 l 439 -292 q 252 -263 307 -292 q 172 -179 196 -235 q 149 -14 149 -124 q 150 35 149 11 q 151 66 151 50 q 136 178 151 144 q 95 226 122 211 q 18 242 68 241 l 18 475 q 96 491 70 475 q 136 541 122 507 q 149 654 149 574 l 149 677 q 149 709 149 693 q 169 882 149 829 q 224 964 189 936 q 296 997 250 986 q 433 1011 356 1011 l 525 1011 z "},"|":{"ha":386,"x_min":109,"x_max":281,"o":"m 109 994 l 281 994 l 281 -274 l 109 -274 l 109 994 z "},"}":{"ha":541,"x_min":16,"x_max":523,"o":"m 16 1011 l 16 789 l 46 789 q 110 771 89 789 q 140 715 132 753 q 146 604 145 695 q 165 460 147 513 q 203 396 178 420 q 266 359 222 378 q 198 315 220 338 q 161 246 176 292 q 145 98 145 199 q 136 -22 145 6 q 104 -61 126 -50 q 16 -73 82 -73 l 16 -292 l 101 -292 q 289 -263 233 -292 q 368 -179 345 -235 q 392 -14 392 -124 q 391 35 392 11 q 390 66 390 50 q 404 178 390 144 q 445 226 418 211 q 523 242 472 241 l 523 475 q 445 491 471 475 q 405 541 418 507 q 391 654 391 574 l 391 677 q 392 709 392 693 q 372 882 392 829 q 317 964 352 936 q 245 997 290 986 q 107 1011 184 1011 l 16 1011 z "},"~":{"ha":917,"x_min":67,"x_max":845,"o":"m 845 659 l 845 438 q 719 355 767 376 q 619 334 671 334 q 540 345 580 334 q 416 399 500 357 q 283 442 332 442 q 67 334 178 442 l 67 557 q 185 637 130 613 q 305 661 240 661 q 375 650 338 661 q 483 605 412 640 q 583 562 553 570 q 640 553 613 553 q 845 659 730 553 z "}}}
